<svg width="112" height="113" viewBox="0 0 112 113" fill="none" xmlns="http://www.w3.org/2000/svg">
<rect y="0.818115" width="112" height="112" rx="16" fill="#D766FF" fill-opacity="0.2"/>
<path fill-rule="evenodd" clip-rule="evenodd" d="M66.8411 24.2706C79.0865 24.2706 89.0265 34.2106 89.0265 46.4561C89.0265 58.3992 79.5779 68.1124 67.7481 68.5659C67.7481 68.4148 67.7576 68.2636 67.767 68.1124C67.7765 67.9612 67.7859 67.8101 67.7859 67.6589C67.7859 55.4134 57.8459 45.4734 45.6005 45.4734C45.4493 45.4734 45.2981 45.4829 45.1469 45.4923C44.9958 45.5018 44.8446 45.5112 44.6934 45.5112C45.1847 33.7193 54.898 24.2706 66.8411 24.2706ZM44.6748 46.0026C44.6654 46.1537 44.6559 46.3049 44.6559 46.4561C44.6559 58.7016 54.5959 68.6415 66.8792 68.6415C67.0303 68.6415 67.1815 68.6321 67.3327 68.6227C67.4839 68.6132 67.6351 68.6038 67.7862 68.6038C67.2949 80.3957 57.5817 89.8443 45.6386 89.8443C33.3931 89.8443 23.4531 79.9044 23.4531 67.6589C23.4531 55.7158 32.9018 46.0026 44.6937 45.549C44.6937 45.7002 44.6843 45.8514 44.6748 46.0026Z" fill="#D766FF"/>
</svg>
