<svg width="112" height="113" viewBox="0 0 112 113" fill="none" xmlns="http://www.w3.org/2000/svg">
<rect y="0.818115" width="112" height="112" rx="16" fill="#369EFF" fill-opacity="0.2"/>
<path fill-rule="evenodd" clip-rule="evenodd" d="M46.2671 38.311C46.2671 43.6859 41.9099 48.0432 36.5349 48.0432C31.16 48.0432 26.8027 43.6859 26.8027 38.311C26.8027 32.936 31.16 28.5788 36.5349 28.5788C41.9099 28.5788 46.2671 32.936 46.2671 38.311ZM85.1959 75.386C85.1959 80.761 80.8386 85.1182 75.4637 85.1182C70.0888 85.1182 65.7315 80.761 65.7315 75.386C65.7315 70.0111 70.0888 65.6538 75.4637 65.6538C80.8386 65.6538 85.1959 70.0111 85.1959 75.386ZM73.3093 29.5664C71.1112 29.5664 69.0407 30.599 67.7181 32.3548L31.1302 80.9272C30.1375 82.2452 31.0777 84.1305 32.7277 84.1305H38.6893C40.8875 84.1305 42.958 83.098 44.2805 81.3422L80.8684 32.7698C81.8612 31.4518 80.9209 29.5664 79.2709 29.5664H73.3093Z" fill="#369EFF"/>
</svg>
